# xmcd
#
# Track frame offsets:
#	150
#	11438
#	25500
#	39875
#	53108
#	67060
#	76425
#	86920
#	100385
#	109973
#	120398
#	132705
#	157490
#
# Disc length: 2291 seconds
#
# Revision: 1
# Processed by: cddbd v1.5.2PL0 Copyright (c) Steve Scherf et al.
# Submitted via: audiograbber 1.83.01
#
DISCID=af08f10d
DTITLE=Hermann Lammers Meyer - Half My Heart's In Texas
DYEAR=1990
DGENRE=Country
TTITLE0=You Wouldn't Cross The Street
TTITLE1=You Ought To Hear Me Cry
TTITLE2=Southern Comfort
TTITLE3=Silver Dollar Bar
TTITLE4=Austin Bound
TTITLE5=(Collecting) Honky Tonk Hearts
TTITLE6=The Trucker
TTITLE7=Am I Standing In You Way
TTITLE8=Half My Heart's In Texas
TTITLE9=Go On Home
TTITLE10=On And On And On
TTITLE11=Neon Leon
TTITLE12=Moonshine Ladies
EXTD=
EXTT0=
EXTT1=
EXTT2=
EXTT3=
EXTT4=
EXTT5=
EXTT6=
EXTT7=
EXTT8=
EXTT9=
EXTT10=
EXTT11=
EXTT12=
PLAYORDER=
